<?xml version="1.0" encoding="utf-8"?>
<!-- Generator: Adobe Illustrator 19.2.1, SVG Export Plug-In . SVG Version: 6.00 Build 0)  -->
<svg version="1.1" id="layer" xmlns="http://www.w3.org/2000/svg" xmlns:xlink="http://www.w3.org/1999/xlink" x="0px" y="0px"
	 viewBox="0 0 652 652" style="enable-background:new 0 0 652 652;" xml:space="preserve">
<style type="text/css">
	.st0{fill:#CF0C32;}
	.st1{fill:#231815;}
</style>
<g>
	<path class="st0" d="M152.9,294.9l6.4,14l36.8-1.3c5.4-6.1,9.6-11.1,11-12.7H152.9z"/>
	<path class="st0" d="M260,294.9c2,2.4,5,6,8.4,10.2l30.4-1.1v-9.1H260z"/>
	<polygon class="st0" points="340.3,294.9 340.3,302.5 373.1,301.3 373.1,294.9 	"/>
	<polygon class="st0" points="414.6,294.9 414.6,299.9 447.3,298.7 447.3,294.9 	"/>
	<path class="st0" d="M106,294.9c-1.9,4.8-4.1,10.4-6.4,16.1l20-0.7c-2.1-5.4-4.2-10.7-6.1-15.4H106z"/>
	<polygon class="st0" points="28.9,294.9 20.3,313.7 58.7,312.4 66.7,294.9 	"/>
	<path class="st0" d="M488.8,297.3l41-1.4c0-0.3,0-0.6,0-1h-41V297.3z"/>
	<polygon class="st1" points="213.3,295.3 175.2,249 215.4,249 234.1,276.2 253.7,249 289.2,249 251.4,292.3 291.6,340.8 
		251.4,340.8 230.8,311.7 209.2,340.8 173.8,340.8 	"/>
	<rect x="303.4" y="249" class="st1" width="32.2" height="91.8"/>
	<polygon class="st1" points="349.1,272 349.1,248.9 438.6,248.9 438.6,272 409.9,272 409.9,340.8 377.8,340.8 377.8,272 	"/>
	<polygon class="st1" points="484.1,294.9 484.1,268.3 520.7,268.3 520.7,248.9 451.9,248.9 451.9,340.8 521.3,340.8 521.3,321.4 
		484.1,321.4 484.1,297.4 	"/>
	<polygon class="st1" points="168.5,340.8 126.6,248.9 93,248.9 51.1,340.8 83,340.8 109.8,273 136.6,340.8 	"/>
	<path class="st1" d="M587.7,247.7c-0.3,0-0.5,0-0.8,0c-0.3,0-0.6,0-0.8,0c-38.4,0-51.6,25.7-51.6,46.7c0,0.1,0,0.3,0,0.4
		c0,0.1,0,0.3,0,0.4c0,21,13.2,46.7,51.6,46.7c0.3,0,0.6,0,0.9,0c0.2,0,0.5,0,0.7,0c12.1,0,23.7-2.8,32.6-6.8v-26.8
		c-9,5.8-17.7,8.9-26.7,9.1c-0.2,0-0.4,0-0.5,0c-16.1,0-26.4-8.9-26.4-22.6c0-13.7,10.2-22.6,26.4-22.6c0.1,0,0.2,0,0.3,0
		c9.1,0.1,17.8,3.3,26.9,9.1v-26.8C611.3,250.5,599.8,247.7,587.7,247.7"/>
	<path class="st1" d="M55.9,371.1c1.4-1.7,3.2-2.5,5.4-2.5c4.1,0,6.2,2.4,6.3,7.1v12.7h-4.4v-12.5c0-1.3-0.3-2.3-0.9-2.9
		c-0.6-0.6-1.4-0.8-2.6-0.8c-1.7,0-3.1,0.8-3.9,2.3v13.9h-4.4v-27.6h4.4V371.1z"/>
	<path class="st1" d="M73.8,364c0-0.7,0.2-1.3,0.6-1.7c0.4-0.4,1-0.7,1.8-0.7s1.4,0.2,1.8,0.7c0.4,0.4,0.6,1,0.6,1.7
		c0,0.7-0.2,1.2-0.6,1.7c-0.4,0.4-1,0.6-1.8,0.6s-1.4-0.2-1.8-0.6C74,365.2,73.8,364.6,73.8,364 M78.4,388.4H74V369h4.4V388.4z"/>
	<path class="st1" d="M84.1,378.6c0-3,0.7-5.4,2.1-7.2c1.4-1.8,3.3-2.7,5.6-2.7c2.2,0,4,0.8,5.2,2.3l0.2-2h3.9v18.8
		c0,2.6-0.8,4.6-2.4,6c-1.6,1.5-3.7,2.2-6.4,2.2c-1.4,0-2.8-0.3-4.2-0.9c-1.4-0.6-2.4-1.4-3.1-2.3l2.1-2.6c1.3,1.6,3,2.4,4.9,2.4
		c1.5,0,2.6-0.4,3.4-1.2c0.8-0.8,1.3-1.9,1.3-3.5v-1.3c-1.3,1.4-2.9,2.1-5,2.1c-2.3,0-4.1-0.9-5.6-2.7
		C84.9,384.3,84.1,381.8,84.1,378.6 M88.5,379c0,2,0.4,3.5,1.2,4.6c0.8,1.1,1.9,1.7,3.3,1.7c1.8,0,3.1-0.8,3.9-2.3v-8.6
		c-0.8-1.5-2.1-2.2-3.9-2.2c-1.4,0-2.6,0.6-3.3,1.7C88.9,375.1,88.5,376.7,88.5,379"/>
	<path class="st1" d="M111.8,371.1c1.4-1.7,3.2-2.5,5.4-2.5c4.1,0,6.2,2.4,6.3,7.1v12.7h-4.4v-12.5c0-1.3-0.3-2.3-0.9-2.9
		c-0.6-0.6-1.4-0.8-2.6-0.8c-1.7,0-3.1,0.8-3.9,2.3v13.9h-4.4v-27.6h4.4V371.1z"/>
	<path class="st1" d="M139.8,378.5c0-3,0.7-5.4,2.1-7.2c1.4-1.8,3.3-2.7,5.6-2.7c2.2,0,3.9,0.8,5.2,2.3l0.3-1.9h3.9v26.9h-4.4v-9.1
		c-1.3,1.3-2.9,2-4.9,2c-2.3,0-4.2-0.9-5.6-2.7C140.5,384.3,139.8,381.7,139.8,378.5 M144.1,378.9c0,2,0.4,3.6,1.2,4.7
		c0.8,1.1,1.9,1.7,3.3,1.7c1.7,0,3-0.7,3.8-2.2v-8.8c-0.8-1.4-2.1-2.1-3.8-2.1c-1.4,0-2.5,0.6-3.3,1.7
		C144.5,374.9,144.1,376.6,144.1,378.9"/>
	<path class="st1" d="M175,386.5c-1.3,1.5-3.1,2.3-5.5,2.3c-2.1,0-3.7-0.6-4.8-1.8c-1.1-1.3-1.6-3-1.6-5.4V369h4.4v12.5
		c0,2.5,1,3.7,3.1,3.7c2.1,0,3.5-0.8,4.3-2.3V369h4.4v19.4h-4.1L175,386.5z"/>
	<path class="st1" d="M197,388.4c-0.2-0.4-0.3-1-0.5-1.8c-1.4,1.5-3.1,2.2-5.1,2.2c-2,0-3.5-0.6-4.8-1.7c-1.2-1.1-1.9-2.5-1.9-4.1
		c0-2.1,0.8-3.7,2.3-4.8c1.5-1.1,3.8-1.7,6.6-1.7h2.7v-1.3c0-1-0.3-1.8-0.8-2.4c-0.6-0.6-1.4-0.9-2.6-0.9c-1,0-1.8,0.3-2.4,0.7
		c-0.6,0.5-0.9,1.1-0.9,1.9h-4.4c0-1,0.4-2.1,1.1-3c0.7-0.9,1.7-1.7,2.9-2.2c1.2-0.5,2.6-0.8,4.1-0.8c2.3,0,4.1,0.6,5.4,1.7
		c1.4,1.1,2.1,2.7,2.1,4.8v8.8c0,1.7,0.2,3.1,0.7,4.2v0.3H197z M192.2,385.3c0.9,0,1.7-0.2,2.4-0.6c0.8-0.4,1.3-1,1.7-1.7v-3.7H194
		c-1.6,0-2.8,0.3-3.7,0.8c-0.8,0.6-1.2,1.4-1.2,2.4c0,0.8,0.3,1.5,0.8,2C190.6,385,191.3,385.3,192.2,385.3"/>
	<rect x="207.4" y="360.8" class="st1" width="4.4" height="27.6"/>
	<path class="st1" d="M218.2,364c0-0.7,0.2-1.3,0.6-1.7c0.4-0.4,1-0.7,1.8-0.7c0.8,0,1.4,0.2,1.8,0.7c0.4,0.4,0.7,1,0.7,1.7
		c0,0.7-0.2,1.2-0.7,1.7c-0.4,0.4-1,0.6-1.8,0.6c-0.8,0-1.4-0.2-1.8-0.6C218.4,365.2,218.2,364.6,218.2,364 M222.9,388.4h-4.4V369
		h4.4V388.4z"/>
	<path class="st1" d="M234.8,364.3v4.7h3.4v3.2h-3.4v10.9c0,0.7,0.1,1.3,0.4,1.6c0.3,0.3,0.8,0.5,1.6,0.5c0.5,0,1-0.1,1.5-0.2v3.4
		c-1,0.3-1.9,0.4-2.9,0.4c-3.3,0-5-1.9-5-5.6v-11h-3.2V369h3.2v-4.7H234.8z"/>
	<path class="st1" d="M250.2,382.2l4-13.2h4.6l-7.7,22.4c-1.2,3.3-3.2,4.9-6,4.9c-0.6,0-1.3-0.1-2.1-0.3v-3.4l0.8,0.1
		c1.1,0,1.9-0.2,2.5-0.6c0.6-0.4,1-1.1,1.3-2l0.6-1.7l-6.8-19.3h4.7L250.2,382.2z"/>
	<path class="st1" d="M273.2,378.6c0-3,0.7-5.4,2.1-7.2c1.4-1.8,3.3-2.7,5.6-2.7c2.2,0,4,0.8,5.2,2.3l0.2-2h3.9v18.8
		c0,2.6-0.8,4.6-2.4,6c-1.6,1.5-3.7,2.2-6.4,2.2c-1.4,0-2.8-0.3-4.2-0.9c-1.4-0.6-2.4-1.4-3.1-2.3l2.1-2.6c1.3,1.6,3,2.4,4.9,2.4
		c1.5,0,2.6-0.4,3.4-1.2c0.8-0.8,1.3-1.9,1.3-3.5v-1.3c-1.3,1.4-2.9,2.1-5,2.1c-2.3,0-4.1-0.9-5.6-2.7
		C273.9,384.3,273.2,381.8,273.2,378.6 M277.5,379c0,2,0.4,3.5,1.2,4.6c0.8,1.1,1.9,1.7,3.3,1.7c1.7,0,3.1-0.8,3.9-2.3v-8.6
		c-0.8-1.5-2.1-2.2-3.9-2.2c-1.4,0-2.6,0.6-3.3,1.7C277.9,375.1,277.5,376.7,277.5,379"/>
	<path class="st1" d="M305.1,388.8c-2.8,0-5-0.9-6.7-2.6c-1.7-1.7-2.6-4-2.6-7v-0.5c0-1.9,0.4-3.7,1.1-5.2c0.8-1.5,1.8-2.7,3.1-3.6
		c1.4-0.8,2.9-1.3,4.5-1.3c2.6,0,4.7,0.8,6.1,2.5c1.5,1.7,2.2,4.1,2.2,7.2v1.7h-12.7c0.1,1.6,0.7,2.9,1.6,3.8
		c0.9,0.9,2.1,1.4,3.5,1.4c2,0,3.6-0.8,4.9-2.4l2.4,2.2c-0.8,1.2-1.8,2.1-3.1,2.7C308.2,388.5,306.7,388.8,305.1,388.8 M304.6,372.2
		c-1.2,0-2.2,0.4-2.9,1.3c-0.7,0.8-1.2,2-1.4,3.5h8.3v-0.3c-0.1-1.5-0.5-2.6-1.2-3.3C306.7,372.5,305.8,372.2,304.6,372.2"/>
	<path class="st1" d="M328.2,373c-0.6-0.1-1.2-0.1-1.8-0.1c-2,0-3.3,0.8-4,2.3v13.3H318V369h4.2l0.1,2.2c1-1.7,2.5-2.5,4.4-2.5
		c0.6,0,1.1,0.1,1.5,0.3L328.2,373z"/>
	<path class="st1" d="M336.8,369l0.1,2c1.4-1.6,3.2-2.4,5.6-2.4c2.6,0,4.4,1,5.3,3c1.4-2,3.4-3,6-3c2.1,0,3.7,0.6,4.8,1.8
		c1,1.2,1.6,2.9,1.6,5.2v12.8h-4.4v-12.6c0-1.2-0.3-2.1-0.8-2.7c-0.5-0.6-1.4-0.9-2.7-0.9c-1,0-1.8,0.3-2.4,0.8
		c-0.6,0.5-1.1,1.2-1.3,2.1l0,13.3h-4.4v-12.8c-0.1-2.3-1.2-3.4-3.5-3.4c-1.7,0-3,0.7-3.7,2.1v14.1h-4.4V369H336.8z"/>
	<path class="st1" d="M378.1,388.4c-0.2-0.4-0.4-1-0.5-1.8c-1.4,1.5-3.1,2.2-5.1,2.2c-2,0-3.5-0.6-4.8-1.7c-1.2-1.1-1.8-2.5-1.8-4.1
		c0-2.1,0.8-3.7,2.3-4.8c1.5-1.1,3.8-1.7,6.6-1.7h2.7v-1.3c0-1-0.3-1.8-0.8-2.4c-0.6-0.6-1.4-0.9-2.6-0.9c-1,0-1.8,0.3-2.4,0.7
		c-0.6,0.5-0.9,1.1-0.9,1.9h-4.4c0-1,0.4-2.1,1.1-3c0.7-0.9,1.7-1.7,2.9-2.2c1.2-0.5,2.6-0.8,4.1-0.8c2.3,0,4.1,0.6,5.4,1.7
		c1.4,1.1,2.1,2.7,2.1,4.8v8.8c0,1.7,0.2,3.1,0.7,4.2v0.3H378.1z M373.3,385.3c0.9,0,1.7-0.2,2.4-0.6c0.8-0.4,1.3-1,1.7-1.7v-3.7
		h-2.4c-1.6,0-2.8,0.3-3.7,0.8c-0.8,0.6-1.2,1.4-1.2,2.4c0,0.8,0.3,1.5,0.8,2C371.6,385,372.3,385.3,373.3,385.3"/>
	<path class="st1" d="M392.2,369l0.1,2.2c1.4-1.7,3.3-2.6,5.6-2.6c4,0,6.1,2.3,6.2,7v12.8h-4.4v-12.6c0-1.2-0.3-2.2-0.8-2.7
		c-0.5-0.6-1.4-0.9-2.6-0.9c-1.7,0-3.1,0.8-3.9,2.4v13.8H388V369H392.2z"/>
	<path class="st1" d="M432.1,383.2c0-0.8-0.3-1.4-1-1.8c-0.6-0.4-1.7-0.8-3.2-1.1c-1.5-0.3-2.7-0.7-3.7-1.2
		c-2.2-1.1-3.3-2.6-3.3-4.6c0-1.7,0.7-3.1,2.1-4.2c1.4-1.1,3.2-1.7,5.4-1.7c2.3,0,4.2,0.6,5.6,1.7c1.4,1.2,2.1,2.6,2.1,4.5h-4.4
		c0-0.8-0.3-1.5-0.9-2.1c-0.6-0.6-1.4-0.8-2.5-0.8c-1,0-1.7,0.2-2.4,0.7c-0.6,0.4-0.9,1-0.9,1.8c0,0.7,0.3,1.2,0.8,1.6
		c0.6,0.4,1.7,0.7,3.4,1.1c1.7,0.4,3.1,0.8,4,1.3c1,0.5,1.7,1.1,2.2,1.9c0.5,0.7,0.7,1.6,0.7,2.6c0,1.7-0.7,3.2-2.2,4.2
		c-1.5,1.1-3.3,1.6-5.7,1.6c-1.6,0-3-0.3-4.3-0.8c-1.2-0.6-2.2-1.4-2.9-2.4c-0.7-1-1-2.1-1-3.3h4.2c0.1,1,0.4,1.8,1.2,2.4
		c0.7,0.6,1.7,0.8,2.9,0.8c1.1,0,2-0.2,2.6-0.7C431.8,384.4,432.1,383.8,432.1,383.2"/>
	<path class="st1" d="M441.2,378.5c0-1.9,0.4-3.6,1.1-5.2c0.8-1.5,1.8-2.7,3.2-3.5c1.4-0.8,2.9-1.2,4.7-1.2c2.6,0,4.7,0.8,6.4,2.5
		c1.6,1.7,2.5,3.9,2.7,6.7v1c0,1.9-0.4,3.6-1.1,5.1c-0.8,1.5-1.8,2.7-3.2,3.5c-1.4,0.8-3,1.3-4.7,1.3c-2.7,0-4.9-0.9-6.6-2.7
		c-1.6-1.8-2.5-4.3-2.5-7.3V378.5z M445.5,378.9c0,2,0.4,3.6,1.2,4.7c0.8,1.1,2,1.7,3.5,1.7c1.5,0,2.6-0.6,3.4-1.7
		c0.8-1.2,1.2-2.8,1.2-5c0-2-0.4-3.5-1.3-4.7c-0.8-1.2-2-1.7-3.4-1.7c-1.4,0-2.6,0.6-3.4,1.7C445.9,375,445.5,376.7,445.5,378.9"/>
	<rect x="464.9" y="360.8" class="st1" width="4.4" height="27.6"/>
	<path class="st1" d="M487.4,388.4c-0.2-0.4-0.4-1-0.5-1.8c-1.4,1.5-3.1,2.2-5.1,2.2c-2,0-3.5-0.6-4.8-1.7c-1.2-1.1-1.8-2.5-1.8-4.1
		c0-2.1,0.8-3.7,2.3-4.8c1.5-1.1,3.7-1.7,6.6-1.7h2.7v-1.3c0-1-0.3-1.8-0.8-2.4c-0.6-0.6-1.4-0.9-2.6-0.9c-1,0-1.8,0.3-2.4,0.7
		c-0.6,0.5-1,1.1-1,1.9h-4.4c0-1,0.4-2.1,1.1-3c0.7-0.9,1.7-1.7,2.9-2.2c1.2-0.5,2.6-0.8,4.1-0.8c2.3,0,4.1,0.6,5.4,1.7
		c1.4,1.1,2.1,2.7,2.1,4.8v8.8c0,1.7,0.2,3.1,0.7,4.2v0.3H487.4z M482.6,385.3c0.9,0,1.7-0.2,2.4-0.6c0.8-0.4,1.3-1,1.7-1.7v-3.7
		h-2.3c-1.6,0-2.8,0.3-3.7,0.8c-0.8,0.6-1.2,1.4-1.2,2.4c0,0.8,0.3,1.5,0.8,2C481,385,481.7,385.3,482.6,385.3"/>
	<path class="st1" d="M507.6,373c-0.6-0.1-1.2-0.1-1.8-0.1c-2,0-3.3,0.8-4,2.3v13.3h-4.4V369h4.2l0.1,2.2c1-1.7,2.5-2.5,4.4-2.5
		c0.6,0,1.1,0.1,1.5,0.3L507.6,373z"/>
	<path class="st1" d="M540.1,378.9c0,3-0.7,5.4-2,7.2c-1.3,1.8-3.2,2.7-5.6,2.7c-2.3,0-4-0.8-5.3-2.5l-0.2,2.1h-4v-27.6h4.4v10
		c1.3-1.5,3-2.2,5.1-2.2c2.4,0,4.2,0.9,5.6,2.6c1.3,1.7,2,4.2,2,7.4V378.9z M535.8,378.5c0-2.1-0.4-3.7-1.1-4.7
		c-0.7-1-1.8-1.6-3.2-1.6c-1.9,0-3.2,0.8-4,2.5v8c0.8,1.7,2.1,2.5,4,2.5c1.4,0,2.4-0.5,3.2-1.5c0.7-1,1.1-2.6,1.1-4.6V378.5z"/>
	<path class="st1" d="M555.7,373c-0.6-0.1-1.2-0.1-1.8-0.1c-2,0-3.3,0.8-4,2.3v13.3h-4.4V369h4.2l0.1,2.2c1-1.7,2.5-2.5,4.4-2.5
		c0.6,0,1.1,0.1,1.5,0.3L555.7,373z"/>
	<path class="st1" d="M571.3,388.4c-0.2-0.4-0.4-1-0.5-1.8c-1.4,1.5-3.1,2.2-5.1,2.2c-2,0-3.5-0.6-4.8-1.7c-1.2-1.1-1.8-2.5-1.8-4.1
		c0-2.1,0.8-3.7,2.3-4.8c1.5-1.1,3.8-1.7,6.6-1.7h2.7v-1.3c0-1-0.3-1.8-0.8-2.4c-0.6-0.6-1.4-0.9-2.6-0.9c-1,0-1.8,0.3-2.4,0.7
		c-0.6,0.5-0.9,1.1-0.9,1.9h-4.4c0-1,0.4-2.1,1.1-3c0.7-0.9,1.7-1.7,2.9-2.2c1.2-0.5,2.6-0.8,4.1-0.8c2.3,0,4.1,0.6,5.4,1.7
		c1.4,1.1,2.1,2.7,2.1,4.8v8.8c0,1.7,0.2,3.1,0.7,4.2v0.3H571.3z M566.5,385.3c0.9,0,1.7-0.2,2.4-0.6c0.8-0.4,1.3-1,1.7-1.7v-3.7
		h-2.4c-1.6,0-2.8,0.3-3.7,0.8c-0.8,0.6-1.2,1.4-1.2,2.4c0,0.8,0.3,1.5,0.8,2C564.8,385,565.5,385.3,566.5,385.3"/>
	<path class="st1" d="M585.4,369l0.1,2.2c1.4-1.7,3.3-2.6,5.6-2.6c4,0,6.1,2.3,6.2,7v12.8H593v-12.6c0-1.2-0.3-2.2-0.8-2.7
		c-0.5-0.6-1.4-0.9-2.6-0.9c-1.7,0-3.1,0.8-3.9,2.4v13.8h-4.4V369H585.4z"/>
	<path class="st1" d="M602.7,378.6c0-3,0.7-5.4,2.1-7.2c1.4-1.8,3.3-2.7,5.6-2.7c2,0,3.7,0.7,5,2.2v-10h4.4v27.6h-4l-0.2-2
		c-1.3,1.6-3.1,2.4-5.2,2.4c-2.3,0-4.1-0.9-5.5-2.8C603.4,384.2,602.7,381.7,602.7,378.6 M607.1,379c0,2,0.4,3.5,1.1,4.6
		c0.8,1.1,1.8,1.7,3.2,1.7c1.8,0,3.1-0.8,3.9-2.4v-8.3c-0.8-1.6-2.1-2.3-3.9-2.3c-1.4,0-2.5,0.6-3.3,1.7
		C607.5,375,607.1,376.7,607.1,379"/>
</g>
</svg>
